<?xml version="1.0" standalone="no"?>
<!DOCTYPE svg PUBLIC "-//W3C//DTD SVG 1.1//EN" "http://www.w3.org/Graphics/SVG/1.1/DTD/svg11.dtd" >
<svg xmlns="http://www.w3.org/2000/svg">
<metadata></metadata>
<defs>
<font id="Fakt" horiz-adv-x="1163" >
<font-face units-per-em="2048" ascent="1532" descent="-516" />
<missing-glyph horiz-adv-x="450" />
<glyph unicode="&#xfb01;" horiz-adv-x="1146" d="M8 852v147h189v164q0 166 85 251t250 85h115v-156h-98q-98 0 -135 -48t-37 -140v-156h614v-999h-180v852h-434v-852h-180v852h-189zM803 1294v205h196v-205h-196z" />
<glyph unicode="&#xfb02;" horiz-adv-x="1146" d="M8 852v147h189v164q0 166 85 251t250 85h459v-1499h-180v1343h-262q-98 0 -135 -48t-37 -140v-156h221v-147h-221v-852h-180v852h-189z" />
<glyph unicode="&#xfb03;" horiz-adv-x="1761" d="M8 852v147h189v164q0 166 85 251t250 85h132v-156h-115q-98 0 -135 -48t-37 -140v-156h434v164q0 166 85 251t251 85h115v-156h-99q-98 0 -135 -48t-37 -140v-156h615v-999h-181v852h-434v-852h-180v852h-434v-852h-180v852h-189zM1417 1294v205h197v-205h-197z" />
<glyph unicode="&#xfb04;" horiz-adv-x="1761" d="M8 852v147h189v164q0 166 85 251t250 85h115v-156h-98q-98 0 -135 -48t-37 -140v-156h434v164q0 166 85 251t251 85h459v-1499h-181v1343h-262q-98 0 -135 -48t-37 -140v-156h271v-147h-271v-852h-180v852h-434v-852h-180v852h-189z" />
<glyph horiz-adv-x="0" />
<glyph horiz-adv-x="682" />
<glyph unicode=" "  horiz-adv-x="450" />
<glyph unicode="&#x09;" horiz-adv-x="450" />
<glyph unicode="&#xa0;" horiz-adv-x="450" />
<glyph unicode="!" horiz-adv-x="573" d="M180 0v221h213v-221h-213zM180 1016v393h213v-393l-57 -623h-98z" />
<glyph unicode="&#x22;" horiz-adv-x="802" d="M131 1237v172h180v-172l-32 -344h-115zM492 1237v172h180v-172l-33 -344h-115z" />
<glyph unicode="#" horiz-adv-x="1261" d="M41 344v139h240l77 451h-235v139h260l59 336h164l-59 -336h295l59 336h164l-59 -336h215v-139h-240l-78 -451h236v-139h-260l-60 -344h-164l60 344h-295l-60 -344h-163l59 344h-215zM444 483h295l78 451h-295z" />
<glyph unicode="$" d="M90 393h180q8 -127 93.5 -198.5t209.5 -71.5q135 0 215 68.5t80 185.5q0 102 -68.5 151.5t-185.5 85.5l-180 58q-104 33 -207.5 119t-103.5 258q0 152 101.5 253t258.5 123v222h181v-222q145 -23 247.5 -119t112.5 -249h-180q-16 117 -91 173t-180 56q-104 0 -183 -55 t-79 -166q0 -102 60.5 -150.5t177.5 -87.5l180 -57q164 -51 246 -144.5t82 -240.5q0 -170 -110.5 -276.5t-282.5 -126.5v-228h-181v228q-172 23 -279.5 131t-113.5 280z" />
<glyph unicode="%" horiz-adv-x="1589" d="M57 1057q0 154 73 261t230 107q160 0 232 -107.5t72 -260.5q0 -154 -72 -261.5t-232 -107.5q-158 0 -230.5 107.5t-72.5 261.5zM213 1057q0 -119 39 -182.5t108 -63.5q72 0 110 63.5t38 182.5t-37 182.5t-111 63.5q-72 0 -109.5 -63.5t-37.5 -182.5zM369 -25l712 1459 h140l-713 -1459h-139zM926 352q0 154 72.5 261.5t230.5 107.5q160 0 231.5 -107.5t71.5 -261.5t-71.5 -261t-231.5 -107q-158 0 -230.5 107.5t-72.5 260.5zM1081 352q0 -119 39 -182.5t109 -63.5q72 0 109.5 63.5t37.5 182.5t-36.5 182.5t-110.5 63.5q-72 0 -110 -63.5 t-38 -182.5z" />
<glyph unicode="&#x26;" horiz-adv-x="1458" d="M98 369q0 164 99.5 256t226.5 153q-88 94 -129 163t-41 157q0 129 100.5 232.5t284.5 103.5q178 0 281.5 -89.5t103.5 -230.5q0 -150 -105.5 -230.5t-236.5 -138.5l369 -372q33 70 48 149.5t15 165.5v17h164v-41q0 -70 -22.5 -184.5t-90.5 -225.5l252 -254h-213l-135 135 q-74 -70 -183.5 -115t-262.5 -45q-248 0 -386.5 107.5t-138.5 286.5zM279 385q0 -125 99 -193.5t245 -68.5q111 0 194.5 31.5t140.5 89.5l-430 432q-102 -51 -175.5 -116.5t-73.5 -174.5zM418 1106q0 -63 41 -120.5t119 -137.5q111 51 192.5 109.5t81.5 156.5 q0 74 -54.5 127t-158.5 53q-111 0 -166 -57t-55 -131z" />
<glyph unicode="'" horiz-adv-x="442" d="M131 1237v172h180v-172l-32 -344h-115z" />
<glyph unicode="(" horiz-adv-x="581" d="M49 532q0 326 115 588t221 404h164q-88 -113 -208 -389.5t-120 -602.5t123 -606t205 -393h-164q-106 141 -221 407.5t-115 591.5z" />
<glyph unicode=")" horiz-adv-x="581" d="M33 -467q82 113 204.5 393.5t122.5 605.5q0 326 -119.5 602.5t-207.5 389.5h164q106 -141 220.5 -403.5t114.5 -588.5t-114.5 -592t-220.5 -407h-164z" />
<glyph unicode="*" horiz-adv-x="933" d="M133 1128l45 142l248 -117l-33 272h148l-35 -274l250 119l45 -142l-269 -53l187 -198l-119 -86l-135 237l-131 -237l-119 86l184 200z" />
<glyph unicode="+" d="M115 442v156h385v385h164v-385h385v-156h-385v-385h-164v385h-385z" />
<glyph unicode="," horiz-adv-x="540" d="M156 0v238h229v-222l-90 -335h-107l66 319h-98z" />
<glyph unicode="-" horiz-adv-x="811" d="M123 434v164h565v-164h-565z" />
<glyph unicode="." horiz-adv-x="540" d="M156 0v238h229v-238h-229z" />
<glyph unicode="/" horiz-adv-x="819" d="M16 -25l631 1459h156l-631 -1459h-156z" />
<glyph unicode="0" d="M90 705q0 305 114.5 517t377.5 212q262 0 376.5 -212t114.5 -517t-114.5 -517.5t-376.5 -212.5t-377 212t-115 518zM279 705q0 -268 74.5 -417t228.5 -149t228.5 148.5t74.5 417.5q0 268 -75 416.5t-228 148.5q-158 0 -230.5 -148.5t-72.5 -416.5z" />
<glyph unicode="1" d="M123 1098l450 311h140v-1253h336v-156h-877v156h360v1030l-327 -228z" />
<glyph unicode="2" d="M115 0q8 236 96 366t248 240l155 107q109 76 173.5 136t64.5 183q0 86 -61.5 166t-200.5 80q-135 0 -205 -72.5t-82 -214.5h-164q12 250 148.5 346.5t302.5 96.5q193 0 317.5 -106.5t124.5 -295.5q0 -184 -97 -271t-206 -163l-156 -106q-160 -109 -203.5 -190t-50.5 -146 h730v-156h-934z" />
<glyph unicode="3" d="M98 426h172q0 -150 87 -222.5t216 -72.5q131 0 217.5 68.5t86.5 191.5q0 119 -90.5 189.5t-213.5 70.5h-106v156h106q104 0 179 67.5t75 176.5t-74.5 168t-179.5 59q-104 0 -179 -62.5t-75 -191.5h-163q0 186 115.5 298t301.5 112q193 0 309.5 -107.5t116.5 -273.5 q0 -102 -62.5 -193.5t-141.5 -122.5v-8q111 -31 186.5 -127t75.5 -225q0 -188 -141.5 -295t-342.5 -107q-213 0 -344 113t-131 338z" />
<glyph unicode="4" d="M66 352v131l679 926h148v-901h205v-156h-205v-352h-180v352h-647zM250 508h463v620z" />
<glyph unicode="5" d="M98 377h181q12 -92 84.5 -169t218.5 -77q117 0 210 78t93 225q0 145 -87 228t-216 83q-82 0 -147.5 -35.5t-123.5 -103.5l-164 8l41 795h795v-164h-631l-24 -442h8q43 43 110.5 70.5t159.5 27.5q188 0 323.5 -119.5t135.5 -330.5q0 -238 -149.5 -357t-333.5 -119 q-213 0 -340 111t-144 291z" />
<glyph unicode="6" d="M98 672q0 424 166 593t367 169q203 0 305 -105.5t121 -271.5h-180q-12 92 -67.5 156.5t-178.5 64.5t-229.5 -126t-114.5 -437q43 86 146.5 136t213.5 50q197 0 320 -126t123 -333q0 -225 -146.5 -346t-329.5 -121q-207 0 -361.5 155t-154.5 542zM311 440q0 -131 84 -220 t211 -89q125 0 214 81t89 230q0 135 -85 219t-201 84q-131 0 -221.5 -88t-90.5 -217z" />
<glyph unicode="7" d="M106 1245v164h967v-131l-598 -1278h-188l590 1245h-771z" />
<glyph unicode="8" d="M90 377q0 129 76 225t186 127v8q-86 31 -145.5 121t-59.5 195q0 166 118 273.5t317 107.5t316.5 -107.5t117.5 -273.5q0 -104 -59.5 -194.5t-145.5 -121.5v-8q111 -31 186.5 -127t75.5 -225q0 -188 -136 -295t-355 -107t-355.5 106.5t-136.5 295.5zM270 391 q0 -123 88 -191.5t224 -68.5q135 0 223 68.5t88 191.5q0 117 -91 188.5t-220 71.5t-220.5 -71.5t-91.5 -188.5zM319 1051q0 -109 76 -176.5t187 -67.5t186.5 67.5t75.5 176.5t-76 172t-186 63q-111 0 -187 -63.5t-76 -171.5z" />
<glyph unicode="9" d="M74 967q0 225 146.5 346t328.5 121q207 0 361.5 -155t154.5 -542q0 -424 -148.5 -593t-367.5 -169q-207 0 -312.5 105.5t-130.5 271.5h181q18 -86 75.5 -153.5t186.5 -67.5q141 0 231 126t97 435q-43 -84 -146.5 -134t-214.5 -50q-197 0 -319.5 126t-122.5 333zM254 967 q0 -135 85 -219t202 -84q131 0 221 88t90 217t-85 219t-210 90q-119 0 -211 -81t-92 -230z" />
<glyph unicode=":" horiz-adv-x="540" d="M156 0v238h229v-238h-229zM156 762v237h229v-237h-229z" />
<glyph unicode=";" horiz-adv-x="540" d="M156 0v238h229v-222l-90 -335h-107l66 319h-98zM156 762v237h229v-237h-229z" />
<glyph unicode="&#x3c;" d="M147 442v156l869 369v-164l-686 -279l686 -278v-172z" />
<glyph unicode="=" d="M115 229v156h934v-156h-934zM115 655v156h934v-156h-934z" />
<glyph unicode="&#x3e;" d="M147 74v164l687 278l-687 279v172l869 -369v-156z" />
<glyph unicode="?" horiz-adv-x="1032" d="M82 983q0 172 109.5 311.5t340.5 139.5q184 0 305 -99.5t121 -269.5q0 -250 -180 -317.5t-180 -264.5v-82h-180v58q0 287 176 350t176 248q0 94 -65.5 157.5t-172.5 63.5q-139 0 -204.5 -88t-65.5 -207h-180zM401 0v221h213v-221h-213z" />
<glyph unicode="@" horiz-adv-x="2113" d="M98 475q0 397 265.5 678t701.5 281q408 0 679 -240t271 -637q0 -305 -129 -439t-289 -134q-92 0 -170.5 35.5t-115.5 132.5q-53 -96 -149.5 -136.5t-211.5 -40.5q-160 0 -248 81t-88 206q0 117 77 196t251 107l197 33q74 12 102.5 24.5t28.5 49.5q0 98 -51.5 151.5 t-161.5 53.5q-111 0 -167 -50.5t-63 -138.5h-172q6 141 108.5 238.5t285.5 97.5q203 0 302 -99.5t99 -277.5v-309q0 -141 51 -186.5t113 -45.5q88 0 167 108t79 343q0 346 -227.5 546t-567.5 200q-371 0 -591 -241t-220 -587t217 -578.5t569 -232.5q119 0 237 37t198 119 h204q-109 -139 -272.5 -213t-366.5 -74q-418 0 -680 272.5t-262 669.5zM795 270q0 -70 50 -112.5t138 -42.5q117 0 202 74.5t85 228.5v96q-14 -18 -42 -29.5t-65 -17.5l-196 -33q-94 -14 -133 -57t-39 -107z" />
<glyph unicode="A" horiz-adv-x="1318" d="M25 0l524 1409h221l524 -1409h-196l-133 369h-619l-133 -369h-188zM406 532h499l-246 680h-8z" />
<glyph unicode="B" horiz-adv-x="1359" d="M172 0v1409h582q227 0 338.5 -98.5t111.5 -270.5q0 -100 -55 -180t-166 -115v-8q127 -23 203 -109.5t76 -209.5q0 -178 -120 -298t-347 -120h-623zM360 164h435q141 0 209.5 70.5t68.5 181.5q0 98 -68.5 164.5t-209.5 66.5h-435v-483zM360 811h394q129 0 195.5 66.5 t66.5 164.5q0 92 -60.5 147.5t-201.5 55.5h-394v-434z" />
<glyph unicode="C" horiz-adv-x="1458" d="M90 705q0 313 189.5 521t490.5 208q246 0 400.5 -130t197.5 -337h-194q-39 141 -140.5 218t-263.5 77q-215 0 -349 -157t-134 -400q0 -238 133 -398t342 -160q174 0 273.5 77t138.5 218h194q-43 -207 -201.5 -337t-404.5 -130q-295 0 -483.5 205t-188.5 525z" />
<glyph unicode="D" horiz-adv-x="1441" d="M180 0v1409h434q362 0 550 -198.5t188 -505.5t-187.5 -506t-550.5 -199h-434zM369 164h245q295 0 418 164t123 377t-123 376.5t-418 163.5h-245v-1081z" />
<glyph unicode="E" horiz-adv-x="1253" d="M180 0v1409h950v-164h-761v-446h606v-164h-606v-471h778v-164h-967z" />
<glyph unicode="F" horiz-adv-x="1179" d="M180 0v1409h934v-164h-745v-491h589v-164h-589v-590h-189z" />
<glyph unicode="G" horiz-adv-x="1556" d="M90 705q0 313 194.5 521t501.5 208q250 0 410 -128t205 -315h-197q-33 109 -136 190t-282 81q-227 0 -363 -160t-136 -397q0 -238 138 -398t353 -160q176 0 313.5 101.5t137.5 292.5v41h-443v163h615v-745h-123l-33 205h-6q-76 -117 -188.5 -173.5t-272.5 -56.5 q-301 0 -494.5 208t-193.5 522z" />
<glyph unicode="H" horiz-adv-x="1490" d="M180 0v1409h189v-614h753v614h189v-1409h-189v631h-753v-631h-189z" />
<glyph unicode="I" horiz-adv-x="548" d="M180 0v1409h189v-1409h-189z" />
<glyph unicode="J" horiz-adv-x="1048" d="M74 401v66h188v-49q0 -150 63.5 -214.5t157.5 -64.5t158 64.5t64 214.5v991h188v-1008q0 -229 -115.5 -327.5t-294.5 -98.5q-178 0 -293.5 98.5t-115.5 327.5z" />
<glyph unicode="K" horiz-adv-x="1335" d="M180 0v1409h189v-758l704 758h221l-579 -612l604 -797h-213l-516 666l-221 -236v-430h-189z" />
<glyph unicode="L" horiz-adv-x="1114" d="M180 0v1409h189v-1245h688v-164h-877z" />
<glyph unicode="M" horiz-adv-x="1851" d="M180 0v1409h230l518 -1155h4l510 1155h229v-1409h-188l16 1114h-8l-492 -1114h-147l-492 1090h-8l17 -1090h-189z" />
<glyph unicode="N" horiz-adv-x="1507" d="M180 0v1409h180l779 -1090h8l-8 1090h188v-1409h-180l-778 1081h-9l9 -1081h-189z" />
<glyph unicode="O" horiz-adv-x="1556" d="M90 705q0 313 190.5 521t497.5 208q301 0 494.5 -208t193.5 -521t-193.5 -521.5t-494.5 -208.5q-307 0 -497.5 208t-190.5 522zM287 705q0 -238 135 -398t356 -160t356.5 160t135.5 398t-135.5 397.5t-356.5 159.5t-356 -160t-135 -397z" />
<glyph unicode="P" horiz-adv-x="1302" d="M180 0v1409h533q240 0 369.5 -127t129.5 -324t-130 -331.5t-369 -134.5h-344v-492h-189zM369 655h352q154 0 228.5 90.5t74.5 212.5q0 123 -75 205t-228 82h-352v-590z" />
<glyph unicode="Q" horiz-adv-x="1564" d="M90 705q0 313 190.5 521t497.5 208q301 0 494.5 -208t193.5 -521q0 -168 -58 -309.5t-161 -239.5l269 -279l-132 -131l-286 303q-70 -35 -151 -54.5t-169 -19.5q-307 0 -497.5 208t-190.5 522zM287 705q0 -238 135 -398t356 -160t356.5 160t135.5 398t-135.5 397.5 t-356.5 159.5t-356 -160t-135 -397z" />
<glyph unicode="R" horiz-adv-x="1335" d="M180 0v1409h533q240 0 365.5 -110.5t125.5 -307.5q0 -156 -78.5 -267.5t-230.5 -152.5l358 -571h-204l-351 549h-329v-549h-189zM369 713h352q147 0 221 80.5t74 197.5t-77 185.5t-218 68.5h-352v-532z" />
<glyph unicode="S" horiz-adv-x="1327" d="M115 401h188q0 -115 93 -192.5t259 -77.5q172 0 266.5 69.5t94.5 192.5q0 256 -370 256q-34 -1 -70 -3q-26 -2 -51 -1q-390 0 -390 379q0 178 143.5 294t376.5 116q225 0 370.5 -106.5t145.5 -295.5h-188q0 117 -93 181.5t-235 64.5q-135 0 -231 -60.5t-96 -177.5 q0 -250 367 -249q36 -1 75 1q26 2 51 2q391 0 391 -393q0 -190 -147 -308t-410 -118q-256 0 -398 118t-142 308z" />
<glyph unicode="T" horiz-adv-x="1204" d="M16 1249v160h1172v-160h-492v-1249h-188v1249h-492z" />
<glyph unicode="U" horiz-adv-x="1425" d="M147 557v852h189v-852q0 -193 93 -301.5t284 -108.5q190 0 283.5 109t93.5 301v852h188v-852q0 -311 -157.5 -446.5t-407.5 -135.5t-408 135.5t-158 446.5z" />
<glyph unicode="V" horiz-adv-x="1269" d="M16 1409h197l422 -1212h8l422 1212h188l-516 -1409h-209z" />
<glyph unicode="W" horiz-adv-x="1916" d="M25 1409h196l299 -1212h8l324 1212h229l324 -1212h8l291 1212h188l-368 -1409h-238l-319 1196h-9l-319 -1196h-238z" />
<glyph unicode="X" horiz-adv-x="1220" d="M16 0l486 719l-469 690h213l362 -541l359 541h204l-460 -684l493 -725h-213l-387 575l-383 -575h-205z" />
<glyph unicode="Y" horiz-adv-x="1245" d="M25 1409h213l380 -664h9l397 664h197l-508 -842v-567h-189v553z" />
<glyph unicode="Z" horiz-adv-x="1196" d="M74 0v123l813 1126h-772v160h1007v-123l-813 -1126h805v-160h-1040z" />
<glyph unicode="[" horiz-adv-x="679" d="M180 -467v1991h467v-148h-303v-1695h303v-148h-467z" />
<glyph unicode="\" horiz-adv-x="819" d="M16 1434h156l631 -1459h-156z" />
<glyph unicode="]" horiz-adv-x="679" d="M33 -319h303v1695h-303v148h467v-1991h-467v148z" />
<glyph unicode="^" d="M111 721l385 688h180l385 -688h-189l-290 543l-291 -543h-180z" />
<glyph unicode="_" horiz-adv-x="1024" d="M0 -147h1024v-140h-1024v140z" />
<glyph unicode="`" horiz-adv-x="1146" d="M213 1499h213l213 -336h-131z" />
<glyph unicode="a" horiz-adv-x="1073" d="M98 254q0 123 77 199.5t251 107.5l197 33q80 14 105.5 28.5t25.5 49.5q0 90 -54.5 147.5t-158.5 57.5q-109 0 -166.5 -53.5t-63.5 -135.5h-172q6 141 109.5 238.5t292.5 97.5q197 0 295 -98.5t98 -270.5v-655h-172v133h-8q-43 -78 -127 -118t-193 -40q-160 0 -248 77 t-88 202zM279 270q0 -63 47 -105t141 -42q117 0 202 73.5t85 221.5v96q-14 -18 -42 -29.5t-65 -17.5l-188 -33q-98 -16 -139 -58t-41 -106z" />
<glyph unicode="b" horiz-adv-x="1196" d="M156 0v1499h180v-319q0 -51 -1 -144.5t-7 -191.5h8q49 98 140 139t196 41q190 0 316 -136t126 -380t-134 -388.5t-325 -144.5q-104 0 -187 41t-132 140h-8v-156h-172zM336 500q0 -178 86 -273.5t209 -95.5t209 99.5t86 277.5t-86 269t-209 91q-119 0 -205 -91t-90 -261 v-16z" />
<glyph unicode="c" horiz-adv-x="1056" d="M82 500q0 238 136 381t339 143q193 0 303.5 -103.5t130.5 -256.5h-180q-14 86 -75.5 145t-178.5 59q-123 0 -205 -101t-82 -267t82 -267.5t205 -101.5q117 0 178.5 59.5t75.5 145.5h180q-20 -154 -130.5 -257.5t-303.5 -103.5q-219 0 -347 143.5t-128 381.5z" />
<glyph unicode="d" horiz-adv-x="1196" d="M82 492q0 244 134 388t325 144q104 0 187 -41t132 -139h8q-6 98 -7 191t-1 145v319h180v-1499h-172v156h-8q-49 -98 -140 -139.5t-196 -41.5q-190 0 -316 136.5t-126 380.5zM270 492q0 -178 86 -269.5t209 -91.5t209 95.5t86 273.5t-86 273t-209 95t-209 -99t-86 -277z " />
<glyph unicode="e" horiz-adv-x="1073" d="M82 500q0 231 136 377.5t339 146.5q197 0 319.5 -126t122.5 -349v-74h-729q6 -156 86 -250t209 -94q111 0 171.5 52.5t74.5 119.5h180q-20 -133 -136 -230.5t-290 -97.5q-231 0 -357 143.5t-126 381.5zM281 610h534q-12 135 -79.5 196.5t-178.5 61.5q-100 0 -176 -68.5 t-100 -189.5z" />
<glyph unicode="f" horiz-adv-x="630" d="M8 852v147h189v164q0 166 85 251t250 85h123v-156h-106q-98 0 -135 -48t-37 -140v-156h246v-147h-246v-852h-180v852h-189z" />
<glyph unicode="g" horiz-adv-x="1196" d="M82 492q0 244 134 388t325 144q104 0 187 -41t132 -139h8v155h172v-950q0 -283 -146 -399.5t-345 -116.5q-186 0 -314.5 88t-128.5 256h173q0 -92 76.5 -144t193.5 -52q131 0 225 79.5t94 288.5v107h-8q-49 -98 -140 -139.5t-196 -41.5q-190 0 -316 136.5t-126 380.5z M270 492q0 -178 86 -269.5t209 -91.5t209 95.5t86 273.5t-86 273t-209 95t-209 -99t-86 -277z" />
<glyph unicode="h" horiz-adv-x="1155" d="M156 0v1499h180v-311q0 -51 -1 -144.5t-7 -191.5h8q43 86 122 129t189 43q147 0 258 -93t111 -325v-606h-180v582q0 160 -62.5 223t-167.5 63q-113 0 -191.5 -93t-78.5 -253v-522h-180z" />
<glyph unicode="i" horiz-adv-x="491" d="M147 1294v205h197v-205h-197zM156 0v999h180v-999h-180z" />
<glyph unicode="j" horiz-adv-x="491" d="M-8 -295h49q63 0 89 37t26 111v1146h180v-1179q0 -117 -62.5 -194t-216.5 -77h-65v156zM147 1294v205h197v-205h-197z" />
<glyph unicode="k" horiz-adv-x="1032" d="M156 0v1499h180v-981l434 481h213l-371 -399l412 -600h-213l-322 469l-153 -168v-301h-180z" />
<glyph unicode="l" horiz-adv-x="491" d="M156 0v1499h180v-1499h-180z" />
<glyph unicode="m" horiz-adv-x="1769" d="M156 0v999h172v-147h8q43 86 121 129t182 43q102 0 186 -47t125 -156q51 104 134 153.5t202 49.5q141 0 242.5 -91t101.5 -310v-623h-180v598q0 147 -50 208.5t-155 61.5q-106 0 -184 -94t-78 -254v-520h-180v598q0 147 -53.5 208.5t-151.5 61.5q-106 0 -184 -94 t-78 -256v-518h-180z" />
<glyph unicode="n" horiz-adv-x="1155" d="M156 0v999h172v-147h8q43 86 122 129t189 43q147 0 258 -93t111 -325v-606h-180v582q0 160 -62.5 223t-167.5 63q-113 0 -191.5 -94t-78.5 -256v-518h-180z" />
<glyph unicode="o" horiz-adv-x="1146" d="M82 500q0 238 139 381t352 143q225 0 358.5 -143.5t133.5 -380.5q0 -238 -139.5 -381.5t-352.5 -143.5q-225 0 -358 143.5t-133 381.5zM270 500q0 -166 84 -267.5t219 -101.5t219.5 101.5t84.5 267.5q0 172 -84 270t-220 98q-135 0 -219 -101t-84 -267z" />
<glyph unicode="p" horiz-adv-x="1196" d="M156 -451v1450h172v-155h8q49 98 140 139t196 41q190 0 316 -136t126 -380t-134 -388.5t-325 -144.5q-104 0 -187 41t-132 140h-8q6 -98 7 -191.5t1 -144.5v-271h-180zM336 500q0 -178 86 -273.5t209 -95.5t209 99.5t86 277.5t-86 269t-209 91q-119 0 -205 -91t-90 -261 v-16z" />
<glyph unicode="q" horiz-adv-x="1187" d="M82 492q0 244 134 388t325 144q104 0 187 -41t132 -139h8v155h172v-1450h-180v271q0 51 1 144t7 192h-8q-49 -98 -140 -139.5t-196 -41.5q-190 0 -316 136.5t-126 380.5zM270 492q0 -178 86 -269.5t209 -91.5q119 0 205 91t90 259v35q-4 170 -90 261t-205 91 q-123 0 -209 -99t-86 -277z" />
<glyph unicode="r" horiz-adv-x="737" d="M156 0v999h172v-145h6q37 80 103.5 125t160.5 45q31 0 65.5 -7t73.5 -34l-57 -164q-33 16 -63.5 24.5t-59.5 8.5q-111 0 -166 -100.5t-55 -229.5v-522h-180z" />
<glyph unicode="s" horiz-adv-x="1007" d="M82 287h172q0 -88 74.5 -130t163.5 -42q123 0 184 44t61 120q0 57 -40 86.5t-115 44.5l-189 32q-100 16 -195.5 71.5t-95.5 199.5q0 147 116 229t282 82q160 0 276.5 -71.5t116.5 -231.5h-172q0 80 -61.5 122t-159.5 42q-92 0 -156.5 -40t-64.5 -116q0 -55 41.5 -87 t130.5 -46l188 -33q113 -20 196 -76.5t83 -191.5q0 -158 -118 -239t-308 -81q-178 0 -294 79t-116 233z" />
<glyph unicode="t" horiz-adv-x="671" d="M-8 852v147h188v304h180v-304h263v-147h-263v-549q0 -80 33 -113.5t107 -33.5h123v-156h-148q-147 0 -221 73.5t-74 221.5v557h-188z" />
<glyph unicode="u" horiz-adv-x="1146" d="M139 393v606h180v-581q0 -160 62.5 -223.5t167.5 -63.5q117 0 189.5 96.5t72.5 255.5v516h180v-999h-172v147h-8q-43 -86 -118 -129t-185 -43q-147 0 -258 93.5t-111 324.5z" />
<glyph unicode="v" horiz-adv-x="958" d="M8 999h197l278 -802h9l278 802h180l-368 -999h-197z" />
<glyph unicode="w" horiz-adv-x="1482" d="M8 999h189l204 -811h9l229 811h213l229 -811h9l204 811h181l-287 -999h-221l-222 819h-8l-221 -819h-221z" />
<glyph unicode="x" horiz-adv-x="950" d="M25 0l352 504l-344 495h213l239 -358l236 358h197l-347 -493l355 -506h-213l-248 371l-244 -371h-196z" />
<glyph unicode="y" horiz-adv-x="958" d="M8 999h197l278 -802h9l278 802h180l-424 -1155q-39 -111 -124 -211t-236 -100h-98v156h65q86 0 147.5 52t98.5 153l22 63z" />
<glyph unicode="z" horiz-adv-x="909" d="M66 852v147h770v-122l-531 -730h539v-147h-770v106l540 746h-548z" />
<glyph unicode="{" horiz-adv-x="729" d="M41 475v123q141 0 185 60.5t44 209.5v344q0 147 68 229.5t252 82.5h106v-140h-98q-94 0 -129 -38.5t-35 -124.5v-402q0 -111 -46 -179.5t-159 -98.5v-9q113 -31 159 -99t46 -179v-418q0 -86 35 -125t129 -39h98v-139h-106q-184 0 -252 82t-68 229v361q0 150 -44 210 t-185 60z" />
<glyph unicode="|" horiz-adv-x="524" d="M180 -492v2048h164v-2048h-164z" />
<glyph unicode="}" horiz-adv-x="729" d="M33 -328h98q94 0 129 39t35 125v418q0 111 46 179.5t159 98.5v9q-113 31 -159 99.5t-46 178.5v402q0 86 -35 124.5t-129 38.5h-98v140h106q184 0 252 -82t68 -230v-344q0 -150 44 -210t185 -60v-123q-141 0 -185 -60.5t-44 -209.5v-361q0 -147 -67.5 -229t-252.5 -82 h-106v139z" />
<glyph unicode="~" d="M115 377q0 160 78.5 235.5t183.5 75.5q139 0 228 -78t181 -78q49 0 78 35t29 121h156q0 -160 -77 -235.5t-177 -75.5q-139 0 -233.5 82t-184.5 82q-49 0 -78 -39t-29 -125h-155z" />
<glyph unicode="&#xa1;" horiz-adv-x="573" d="M180 -16l58 622h98l57 -622v-394h-213v394zM180 778v221h213v-221h-213z" />
<glyph unicode="&#xa2;" d="M115 713q0 213 118.5 352t290.5 166v203h181v-205q154 -27 243.5 -122t108.5 -230h-180q-14 86 -81 145t-190 59q-129 0 -216 -101t-87 -267t87 -267.5t216 -101.5q123 0 189.5 59.5t81.5 145.5h180q-18 -135 -110.5 -233.5t-250.5 -120.5v-220h-180v220 q-186 27 -293.5 166t-107.5 352z" />
<glyph unicode="&#xa3;" d="M8 164q0 106 68.5 163.5t169.5 57.5q39 0 74.5 -9t68.5 -24q2 16 3 33.5t1 32.5q0 63 -14 125.5t-35 124.5h-221v127h178q-20 68 -37.5 137t-17.5 141q0 164 103.5 262.5t273.5 98.5q166 0 261 -93.5t107 -267.5h-180q-10 111 -58 162t-139 51q-76 0 -132 -51t-56 -145 q0 -76 20.5 -149t47.5 -146h325v-127h-282q12 -45 20 -91.5t8 -93.5q0 -57 -7 -110.5t-21 -104.5q76 -51 146.5 -94t143.5 -43q63 0 99.5 47t40.5 158h155q-8 -129 -69.5 -245t-233.5 -116q-92 0 -176 52.5t-160 109.5q-41 -72 -107.5 -117t-154.5 -45q-100 0 -156.5 54.5 t-56.5 134.5zM131 176q0 -41 24.5 -67.5t69.5 -26.5q53 0 87 41t53 98q-33 20 -68 34.5t-68 14.5q-39 0 -68.5 -26.5t-29.5 -67.5z" />
<glyph unicode="&#xa4;" d="M180 393l119 121q-27 39 -44 87t-17 104q0 55 19 105t46 89l-123 125l90 90l123 -127q39 27 87 40t102 13q51 0 99 -13t87 -40l125 127l90 -90l-123 -125q27 -39 46.5 -89t19.5 -105t-18.5 -103.5t-45.5 -87.5l121 -121l-90 -90l-119 121q-39 -27 -89 -41t-103 -14 q-55 0 -104.5 14t-88.5 41l-119 -121zM385 705q0 -94 57.5 -149.5t139.5 -55.5t139 55t57 150q0 94 -57 149t-139 55t-139.5 -55t-57.5 -149z" />
<glyph unicode="&#xa5;" d="M33 1409h205l348 -606h8l348 606h188l-458 -780v-6h311v-115h-311v-156h311v-114h-311v-238h-180v238h-312v114h312v156h-312v115h312v12z" />
<glyph unicode="&#xa6;" horiz-adv-x="524" d="M180 -336v721h164v-721h-164zM180 688v721h164v-721h-164z" />
<glyph unicode="&#xa7;" horiz-adv-x="1171" d="M123 475q0 109 64.5 193t174.5 125q-88 39 -143 105.5t-55 182.5q0 166 122 259.5t312 93.5q184 0 303 -78t131 -250h-172q-8 98 -79.5 143t-182.5 45q-123 0 -188.5 -52t-65.5 -144q0 -80 51 -120t146 -69l188 -57q166 -51 243 -137t77 -223q0 -111 -64.5 -194 t-175.5 -124q88 -39 143.5 -106.5t55.5 -182.5q0 -166 -122 -259t-313 -93q-184 0 -302.5 78t-131.5 250h172q8 -98 80 -143.5t182 -45.5q123 0 188.5 52.5t65.5 144.5q0 80 -51 120t-145 68l-189 58q-166 51 -242.5 137t-76.5 223zM295 500q0 -102 56.5 -149.5t164.5 -80.5 l117 -37q121 27 182.5 90.5t61.5 143.5q0 102 -56.5 149.5t-165.5 79.5l-133 39q-113 -27 -170 -93.5t-57 -141.5z" />
<glyph unicode="&#xa8;" horiz-adv-x="1146" d="M279 1237v188h180v-188h-180zM688 1237v188h180v-188h-180z" />
<glyph unicode="&#xa9;" horiz-adv-x="1589" d="M74 713q0 307 205.5 514t515.5 207q305 0 513 -207t208 -514t-206 -522.5t-515 -215.5t-515 215.5t-206 522.5zM221 713q0 -250 161 -432.5t413 -182.5q246 0 409.5 182.5t163.5 432.5t-160.5 420t-412.5 170t-413 -170t-161 -420zM442 713q0 147 95.5 253.5t257.5 106.5 q127 0 206.5 -65.5t100.5 -171.5h-144q-14 51 -53 82.5t-110 31.5q-94 0 -149.5 -70.5t-55.5 -166.5t55 -167t150 -71q72 0 110.5 32t52.5 83h144q-20 -106 -100 -172t-207 -66q-162 0 -257.5 106.5t-95.5 254.5z" />
<glyph unicode="&#xaa;" horiz-adv-x="790" d="M74 889q0 86 56 142t179 73l133 16q51 6 70.5 17.5t19.5 42.5q0 51 -31.5 89t-101.5 38q-57 0 -96 -30t-43 -93h-154q8 129 94.5 186t198.5 57q137 0 217 -63.5t80 -189.5v-469h-157v86h-7q-31 -49 -88 -76t-135 -27q-113 0 -174 56.5t-61 144.5zM238 901 q0 -45 30.5 -71.5t85.5 -26.5q70 0 124 44t54 140v64q-8 -14 -26.5 -22.5t-42.5 -10.5l-115 -14q-59 -8 -84.5 -36t-25.5 -67z" />
<glyph unicode="&#xab;" horiz-adv-x="1048" d="M106 516l295 418h148l-238 -418l238 -418h-148zM500 516l295 418h147l-237 -418l237 -418h-147z" />
<glyph unicode="&#xac;" d="M115 442v156h934v-541h-164v385h-770z" />
<glyph unicode="&#xad;" horiz-adv-x="811" d="M123 434v164h565v-164h-565z" />
<glyph unicode="&#xae;" horiz-adv-x="1589" d="M74 713q0 307 205.5 514t515.5 207q305 0 513 -207t208 -514t-206 -522.5t-515 -215.5t-515 215.5t-206 522.5zM221 713q0 -250 161 -432.5t413 -182.5q246 0 409.5 182.5t163.5 432.5t-160.5 420t-412.5 170t-413 -170t-161 -420zM508 360v705h323q129 0 198 -59.5 t69 -161.5q0 -72 -43 -128.5t-113 -82.5l180 -273h-159l-158 254h-150v-254h-147zM655 737h172q61 0 92 29t31 78q0 47 -31.5 72.5t-91.5 25.5h-172v-205z" />
<glyph unicode="&#xaf;" horiz-adv-x="1146" d="M287 1262v139h565v-139h-565z" />
<glyph unicode="&#xb0;" horiz-adv-x="737" d="M82 1155q0 123 83 201t204 78t203.5 -78t82.5 -201t-83 -200.5t-203 -77.5q-121 0 -204 77.5t-83 200.5zM229 1155q0 -66 40 -106.5t100 -40.5q59 0 99 41t40 106q0 66 -40 107t-99 41t-99.5 -41t-40.5 -107z" />
<glyph unicode="&#xb1;" d="M115 0v156h934v-156h-934zM115 647v156h385v356h164v-356h385v-156h-385v-356h-164v356h-385z" />
<glyph unicode="&#xb2;" horiz-adv-x="720" d="M66 1016q0 160 73.5 232.5t155.5 113.5l49 24q57 29 98 61t41 69q0 45 -29.5 71.5t-93.5 26.5q-61 0 -98 -34t-41 -97h-147q4 137 91 195.5t195 58.5q123 0 201 -56.5t78 -160.5q0 -98 -73.5 -151.5t-155.5 -92.5l-50 -25q-45 -20 -79.5 -52t-34.5 -52h393v-131h-573z " />
<glyph unicode="&#xb3;" horiz-adv-x="720" d="M70 1229h147q0 -55 40 -85t103 -30q61 0 102.5 25.5t41.5 81.5q0 55 -41 80.5t-103 25.5h-57v107h57q57 0 92 24.5t35 69.5t-34.5 69.5t-92.5 24.5q-57 0 -92 -29.5t-35 -76.5h-147q0 106 78 163.5t205 57.5q123 0 196.5 -55.5t73.5 -141.5q0 -55 -29.5 -99t-85.5 -57v-6 q61 -14 100.5 -60t39.5 -114q0 -98 -81 -151.5t-223 -53.5q-129 0 -209.5 53.5t-80.5 176.5z" />
<glyph unicode="&#xb4;" horiz-adv-x="1146" d="M508 1163l213 336h213l-295 -336h-131z" />
<glyph unicode="&#xb5;" d="M156 -451v1450h180v-581q0 -160 59.5 -223.5t169.5 -63.5q117 0 189.5 96.5t72.5 255.5v516h181v-999h-172v147h-9q-43 -86 -117.5 -129t-185.5 -43q-55 0 -106 14.5t-94 43.5h-13q12 -98 18.5 -166t6.5 -162v-156h-180z" />
<glyph unicode="&#xb6;" horiz-adv-x="1286" d="M82 958q0 203 138 327t378 124h123v-1409h-180v510q-213 14 -336 136t-123 312zM893 0v1409h180v-1409h-180z" />
<glyph unicode="&#xb7;" horiz-adv-x="540" d="M156 401v230h229v-230h-229z" />
<glyph unicode="&#xb8;" horiz-adv-x="1146" d="M442 -336h107q49 0 77.5 16.5t28.5 65.5q0 43 -28.5 62.5t-77.5 19.5h-66l58 172h65v-74q92 -6 140.5 -57t48.5 -123q0 -86 -60.5 -141.5t-177.5 -55.5h-115v115z" />
<glyph unicode="&#xb9;" horiz-adv-x="720" d="M82 1548l287 172h98v-573h188v-131h-549v131h205v385l-164 -94z" />
<glyph unicode="&#xba;" horiz-adv-x="845" d="M61 1057q0 168 100.5 269t260.5 101q166 0 264 -101t98 -269t-101 -268.5t-261 -100.5q-166 0 -263.5 100.5t-97.5 268.5zM231 1057q0 -104 52.5 -171t138.5 -67q88 0 140 66.5t52 171.5q0 109 -52 173t-140 64q-86 0 -138.5 -65.5t-52.5 -171.5z" />
<glyph unicode="&#xbb;" horiz-adv-x="1048" d="M106 98l238 418l-238 418h148l295 -418l-295 -418h-148zM500 98l237 418l-237 418h147l295 -418l-295 -418h-147z" />
<glyph unicode="&#xbc;" horiz-adv-x="1589" d="M82 1237l287 172h98v-573h188v-131h-549v131h205v385l-164 -95zM442 -25l713 1459h139l-712 -1459h-140zM918 131v98l385 476h131v-451h98v-123h-98v-131h-156v131h-360zM1087 254h191v240z" />
<glyph unicode="&#xbd;" horiz-adv-x="1589" d="M82 1237l287 172h98v-573h188v-131h-549v131h205v385l-164 -95zM393 -25l713 1459h139l-713 -1459h-139zM934 0q0 160 73.5 232.5t155.5 113.5l49 25q57 29 98.5 60.5t41.5 68.5q0 45 -30 71.5t-93 26.5q-61 0 -98 -34t-41 -97h-148q4 137 91 195.5t196 58.5 q123 0 200.5 -56.5t77.5 -160.5q0 -98 -73.5 -151.5t-155.5 -92.5l-49 -24q-45 -20 -80 -52t-35 -53h393v-131h-573z" />
<glyph unicode="&#xbe;" horiz-adv-x="1589" d="M70 918h147q0 -55 40 -85t103 -30q61 0 102.5 25.5t41.5 80.5t-41 81t-103 26h-57v106h57q57 0 92 24.5t35 70.5q0 45 -34.5 69.5t-92.5 24.5q-57 0 -92 -30t-35 -77h-147q0 106 78 163.5t205 57.5q123 0 196.5 -55t73.5 -141q0 -55 -29.5 -99.5t-85.5 -56.5v-6 q61 -14 100.5 -60t39.5 -114q0 -98 -81 -151.5t-223 -53.5q-129 0 -209.5 53.5t-80.5 176.5zM418 -25l712 1459h140l-713 -1459h-139zM918 131v98l385 476h131v-451h98v-123h-98v-131h-156v131h-360zM1087 254h191v240z" />
<glyph unicode="&#xbf;" horiz-adv-x="1032" d="M82 -66q0 250 180 317.5t180 264.5v82h181v-57q0 -287 -176.5 -350.5t-176.5 -247.5q0 -94 65.5 -158t172.5 -64q139 0 204.5 88.5t65.5 206.5h180q0 -172 -109.5 -311t-340.5 -139q-184 0 -305 99t-121 269zM426 778v221h213v-221h-213z" />
<glyph unicode="&#xc0;" horiz-adv-x="1318" d="M25 0l524 1409h221l524 -1409h-196l-133 369h-619l-133 -369h-188zM295 1909h213l213 -336h-131zM406 532h499l-246 680h-8z" />
<glyph unicode="&#xc1;" horiz-adv-x="1318" d="M25 0l524 1409h221l524 -1409h-196l-133 369h-619l-133 -369h-188zM406 532h499l-246 680h-8zM590 1573l213 336h213l-295 -336h-131z" />
<glyph unicode="&#xc2;" horiz-adv-x="1318" d="M25 0l524 1409h221l524 -1409h-196l-133 369h-619l-133 -369h-188zM311 1573l262 336h164l262 -336h-172l-172 229l-172 -229h-172zM406 532h499l-246 680h-8z" />
<glyph unicode="&#xc3;" horiz-adv-x="1318" d="M25 0l524 1409h221l524 -1409h-196l-133 369h-619l-133 -369h-188zM319 1573q4 92 53.5 156.5t143.5 64.5q90 0 162 -49t125 -49q43 0 63.5 31.5t26.5 66.5h98q-4 -92 -53 -156.5t-143 -64.5q-90 0 -162 49t-125 49q-43 0 -63.5 -31.5t-26.5 -66.5h-99zM406 532h499 l-246 680h-8z" />
<glyph unicode="&#xc4;" horiz-adv-x="1318" d="M25 0l524 1409h221l524 -1409h-196l-133 369h-619l-133 -369h-188zM360 1573v188h181v-188h-181zM406 532h499l-246 680h-8zM770 1573v188h180v-188h-180z" />
<glyph unicode="&#xc5;" horiz-adv-x="1318" d="M25 0l524 1409h221l524 -1409h-196l-133 369h-619l-133 -369h-188zM406 532h499l-246 680h-8zM451 1761q0 88 61 142.5t143 54.5t143.5 -54.5t61.5 -142.5t-61.5 -142t-143.5 -54t-143 54t-61 142zM549 1761q0 -45 30.5 -75.5t75.5 -30.5t76 30.5t31 75.5t-31 76t-76 31 t-75.5 -31t-30.5 -76z" />
<glyph unicode="&#xc6;" horiz-adv-x="2179" d="M25 0l1015 1409h1016v-164h-762v-446h607v-164h-607v-471h779v-164h-967v328h-625l-235 -328h-221zM598 492h508v696h-8z" />
<glyph unicode="&#xc7;" horiz-adv-x="1458" d="M90 705q0 313 189.5 521t490.5 208q246 0 400.5 -130t197.5 -337h-194q-39 141 -140.5 218t-263.5 77q-215 0 -349 -157t-134 -400q0 -238 133 -398t342 -160q174 0 273.5 77t138.5 218h194q-41 -201 -191.5 -329.5t-381.5 -137.5v-49q92 -6 140 -57t48 -123 q0 -86 -60.5 -141.5t-177.5 -55.5h-114v115h106q49 0 78 16.5t29 65.5q0 43 -29 62.5t-78 19.5h-65l49 149q-281 14 -456 216t-175 512z" />
<glyph unicode="&#xc8;" horiz-adv-x="1253" d="M180 0v1409h950v-164h-761v-446h606v-164h-606v-471h778v-164h-967zM295 1909h213l213 -336h-131z" />
<glyph unicode="&#xc9;" horiz-adv-x="1253" d="M180 0v1409h950v-164h-761v-446h606v-164h-606v-471h778v-164h-967zM590 1573l213 336h213l-295 -336h-131z" />
<glyph unicode="&#xca;" horiz-adv-x="1253" d="M180 0v1409h950v-164h-761v-446h606v-164h-606v-471h778v-164h-967zM311 1573l262 336h164l262 -336h-172l-172 229l-172 -229h-172z" />
<glyph unicode="&#xcb;" horiz-adv-x="1253" d="M180 0v1409h950v-164h-761v-446h606v-164h-606v-471h778v-164h-967zM360 1573v188h181v-188h-181zM770 1573v188h180v-188h-180z" />
<glyph unicode="&#xcc;" horiz-adv-x="548" d="M-86 1909h213l213 -336h-131zM180 0v1409h189v-1409h-189z" />
<glyph unicode="&#xcd;" horiz-adv-x="548" d="M180 0v1409h189v-1409h-189zM209 1573l213 336h213l-295 -336h-131z" />
<glyph unicode="&#xce;" horiz-adv-x="548" d="M-70 1573l263 336h163l262 -336h-172l-172 229l-172 -229h-172zM180 0v1409h189v-1409h-189z" />
<glyph unicode="&#xcf;" horiz-adv-x="548" d="M-20 1573v188h180v-188h-180zM180 0v1409h189v-1409h-189zM389 1573v188h180v-188h-180z" />
<glyph unicode="&#xd0;" horiz-adv-x="1441" d="M8 631v155h172v623h434q362 0 550 -198.5t188 -505.5t-187.5 -506t-550.5 -199h-434v631h-172zM369 164h245q295 0 418 164t123 377t-123 376.5t-418 163.5h-245v-459h327v-155h-327v-467z" />
<glyph unicode="&#xd1;" horiz-adv-x="1507" d="M180 0v1409h180l779 -1090h8l-8 1090h188v-1409h-180l-778 1081h-9l9 -1081h-189zM418 1573q4 92 53 156.5t143 64.5q90 0 162 -49t125 -49q43 0 63.5 31.5t26.5 66.5h99q-4 -92 -53.5 -156.5t-143.5 -64.5q-90 0 -162 49t-125 49q-43 0 -63.5 -31.5t-26.5 -66.5h-98z " />
<glyph unicode="&#xd2;" horiz-adv-x="1556" d="M90 705q0 313 190.5 521t497.5 208q301 0 494.5 -208t193.5 -521t-193.5 -521.5t-494.5 -208.5q-307 0 -497.5 208t-190.5 522zM287 705q0 -238 135 -398t356 -160t356.5 160t135.5 398t-135.5 397.5t-356.5 159.5t-356 -160t-135 -397zM418 1909h213l213 -336h-131z" />
<glyph unicode="&#xd3;" horiz-adv-x="1556" d="M90 705q0 313 190.5 521t497.5 208q301 0 494.5 -208t193.5 -521t-193.5 -521.5t-494.5 -208.5q-307 0 -497.5 208t-190.5 522zM287 705q0 -238 135 -398t356 -160t356.5 160t135.5 398t-135.5 397.5t-356.5 159.5t-356 -160t-135 -397zM713 1573l213 336h213l-295 -336 h-131z" />
<glyph unicode="&#xd4;" horiz-adv-x="1556" d="M90 705q0 313 190.5 521t497.5 208q301 0 494.5 -208t193.5 -521t-193.5 -521.5t-494.5 -208.5q-307 0 -497.5 208t-190.5 522zM287 705q0 -238 135 -398t356 -160t356.5 160t135.5 398t-135.5 397.5t-356.5 159.5t-356 -160t-135 -397zM434 1573l262 336h164l262 -336 h-172l-172 229l-172 -229h-172z" />
<glyph unicode="&#xd5;" horiz-adv-x="1556" d="M90 705q0 313 190.5 521t497.5 208q301 0 494.5 -208t193.5 -521t-193.5 -521.5t-494.5 -208.5q-307 0 -497.5 208t-190.5 522zM287 705q0 -238 135 -398t356 -160t356.5 160t135.5 398t-135.5 397.5t-356.5 159.5t-356 -160t-135 -397zM442 1573q4 92 53.5 156.5 t143.5 64.5q90 0 161.5 -49t125.5 -49q43 0 63.5 31.5t26.5 66.5h98q-4 -92 -53 -156.5t-143 -64.5q-90 0 -162 49t-125 49q-43 0 -63.5 -31.5t-26.5 -66.5h-99z" />
<glyph unicode="&#xd6;" horiz-adv-x="1556" d="M90 705q0 313 190.5 521t497.5 208q301 0 494.5 -208t193.5 -521t-193.5 -521.5t-494.5 -208.5q-307 0 -497.5 208t-190.5 522zM287 705q0 -238 135 -398t356 -160t356.5 160t135.5 398t-135.5 397.5t-356.5 159.5t-356 -160t-135 -397zM483 1573v188h181v-188h-181z M893 1573v188h180v-188h-180z" />
<glyph unicode="&#xd7;" d="M156 197l319 323l-319 324l106 106l320 -323l319 323l107 -106l-322 -324l322 -323l-107 -107l-319 324l-320 -324z" />
<glyph unicode="&#xd8;" horiz-adv-x="1556" d="M90 705q0 313 193.5 521t494.5 208q115 0 217.5 -35t186.5 -96l104 131h156l-168 -211q90 -96 141 -230.5t51 -287.5q0 -313 -196.5 -521.5t-491.5 -208.5q-117 0 -220 34t-185 93l-103 -127h-155l166 207q-90 98 -140.5 232.5t-50.5 290.5zM287 705q0 -111 29.5 -206.5 t82.5 -166.5l670 831q-57 45 -131 72t-160 27q-221 0 -356 -160t-135 -397zM485 244q59 -45 133 -71t160 -26q221 0 356.5 160t135.5 398q0 109 -30 204t-85 168z" />
<glyph unicode="&#xd9;" horiz-adv-x="1425" d="M147 557v852h189v-852q0 -193 93 -301.5t284 -108.5q190 0 283.5 109t93.5 301v852h188v-852q0 -311 -157.5 -446.5t-407.5 -135.5t-408 135.5t-158 446.5zM352 1909h213l213 -336h-131z" />
<glyph unicode="&#xda;" horiz-adv-x="1425" d="M147 557v852h189v-852q0 -193 93 -301.5t284 -108.5q190 0 283.5 109t93.5 301v852h188v-852q0 -311 -157.5 -446.5t-407.5 -135.5t-408 135.5t-158 446.5zM647 1573l213 336h213l-295 -336h-131z" />
<glyph unicode="&#xdb;" horiz-adv-x="1425" d="M147 557v852h189v-852q0 -193 93 -301.5t284 -108.5q190 0 283.5 109t93.5 301v852h188v-852q0 -311 -157.5 -446.5t-407.5 -135.5t-408 135.5t-158 446.5zM369 1573l262 336h164l262 -336h-172l-172 229l-172 -229h-172z" />
<glyph unicode="&#xdc;" horiz-adv-x="1425" d="M147 557v852h189v-852q0 -193 93 -301.5t284 -108.5q190 0 283.5 109t93.5 301v852h188v-852q0 -311 -157.5 -446.5t-407.5 -135.5t-408 135.5t-158 446.5zM418 1573v188h180v-188h-180zM827 1573v188h181v-188h-181z" />
<glyph unicode="&#xdd;" horiz-adv-x="1245" d="M25 1409h213l380 -664h9l397 664h197l-508 -842v-567h-189v553zM557 1573l213 336h213l-295 -336h-131z" />
<glyph unicode="&#xde;" horiz-adv-x="1302" d="M180 0v1409h189v-229h344q240 0 369.5 -127t129.5 -324t-130 -332t-369 -135h-344v-262h-189zM369 426h352q154 0 228.5 90t74.5 213t-75 205t-228 82h-352v-590z" />
<glyph unicode="&#xdf;" d="M156 0v1049q0 248 127 361.5t315 113.5q197 0 287 -97.5t90 -214.5q0 -160 -106.5 -221t-106.5 -155q0 -117 172 -187.5t172 -296.5q0 -170 -116 -261t-294 -91h-172v147h172q102 0 166 48.5t64 140.5q0 178 -164 224t-164 259q0 160 106.5 215.5t106.5 177.5 q0 59 -52 111.5t-169 52.5q-115 0 -184.5 -76.5t-69.5 -250.5v-1049h-180z" />
<glyph unicode="&#xe0;" horiz-adv-x="1073" d="M98 254q0 123 77 199.5t251 107.5l197 33q80 14 105.5 28.5t25.5 49.5q0 90 -54.5 147.5t-158.5 57.5q-109 0 -166.5 -53.5t-63.5 -135.5h-172q6 141 109.5 238.5t292.5 97.5q197 0 295 -98.5t98 -270.5v-655h-172v133h-8q-43 -78 -127 -118t-193 -40q-160 0 -248 77 t-88 202zM188 1499h213l213 -336h-131zM279 270q0 -63 47 -105t141 -42q117 0 202 73.5t85 221.5v96q-14 -18 -42 -29.5t-65 -17.5l-188 -33q-98 -16 -139 -58t-41 -106z" />
<glyph unicode="&#xe1;" horiz-adv-x="1073" d="M98 254q0 123 77 199.5t251 107.5l197 33q80 14 105.5 28.5t25.5 49.5q0 90 -54.5 147.5t-158.5 57.5q-109 0 -166.5 -53.5t-63.5 -135.5h-172q6 141 109.5 238.5t292.5 97.5q197 0 295 -98.5t98 -270.5v-655h-172v133h-8q-43 -78 -127 -118t-193 -40q-160 0 -248 77 t-88 202zM279 270q0 -63 47 -105t141 -42q117 0 202 73.5t85 221.5v96q-14 -18 -42 -29.5t-65 -17.5l-188 -33q-98 -16 -139 -58t-41 -106zM451 1163l213 336h213l-295 -336h-131z" />
<glyph unicode="&#xe2;" horiz-adv-x="1073" d="M98 254q0 123 77 199.5t251 107.5l197 33q80 14 105.5 28.5t25.5 49.5q0 90 -54.5 147.5t-158.5 57.5q-109 0 -166.5 -53.5t-63.5 -135.5h-172q6 141 109.5 238.5t292.5 97.5q197 0 295 -98.5t98 -270.5v-655h-172v133h-8q-43 -78 -127 -118t-193 -40q-160 0 -248 77 t-88 202zM188 1163l263 336h163l263 -336h-172l-173 230l-172 -230h-172zM279 270q0 -63 47 -105t141 -42q117 0 202 73.5t85 221.5v96q-14 -18 -42 -29.5t-65 -17.5l-188 -33q-98 -16 -139 -58t-41 -106z" />
<glyph unicode="&#xe3;" horiz-adv-x="1073" d="M98 254q0 123 77 199.5t251 107.5l197 33q80 14 105.5 28.5t25.5 49.5q0 90 -54.5 147.5t-158.5 57.5q-109 0 -166.5 -53.5t-63.5 -135.5h-172q6 141 109.5 238.5t292.5 97.5q197 0 295 -98.5t98 -270.5v-655h-172v133h-8q-43 -78 -127 -118t-193 -40q-160 0 -248 77 t-88 202zM197 1221q4 92 53 156.5t143 64.5q90 0 162 -49.5t125 -49.5q43 0 63.5 32t26.5 67h98q-4 -92 -53 -156.5t-143 -64.5q-90 0 -162 49t-125 49q-43 0 -63.5 -32t-26.5 -66h-98zM279 270q0 -63 47 -105t141 -42q117 0 202 73.5t85 221.5v96q-14 -18 -42 -29.5 t-65 -17.5l-188 -33q-98 -16 -139 -58t-41 -106z" />
<glyph unicode="&#xe4;" horiz-adv-x="1073" d="M98 254q0 123 77 199.5t251 107.5l197 33q80 14 105.5 28.5t25.5 49.5q0 90 -54.5 147.5t-158.5 57.5q-109 0 -166.5 -53.5t-63.5 -135.5h-172q6 141 109.5 238.5t292.5 97.5q197 0 295 -98.5t98 -270.5v-655h-172v133h-8q-43 -78 -127 -118t-193 -40q-160 0 -248 77 t-88 202zM238 1237v188h180v-188h-180zM279 270q0 -63 47 -105t141 -42q117 0 202 73.5t85 221.5v96q-14 -18 -42 -29.5t-65 -17.5l-188 -33q-98 -16 -139 -58t-41 -106zM647 1237v188h180v-188h-180z" />
<glyph unicode="&#xe5;" horiz-adv-x="1073" d="M98 254q0 123 77 199.5t251 107.5l197 33q80 14 105.5 28.5t25.5 49.5q0 90 -54.5 147.5t-158.5 57.5q-109 0 -166.5 -53.5t-63.5 -135.5h-172q6 141 109.5 238.5t292.5 97.5q197 0 295 -98.5t98 -270.5v-655h-172v133h-8q-43 -78 -127 -118t-193 -40q-160 0 -248 77 t-88 202zM279 270q0 -63 47 -105t141 -42q117 0 202 73.5t85 221.5v96q-14 -18 -42 -29.5t-65 -17.5l-188 -33q-98 -16 -139 -58t-41 -106zM328 1352q0 88 61.5 142t142.5 54q82 0 143.5 -54t61.5 -142t-61.5 -142.5t-143.5 -54.5t-143 54.5t-61 142.5zM426 1352 q0 -45 30.5 -76t75.5 -31t76 31t31 76t-30.5 75.5t-76.5 30.5q-45 0 -75.5 -30.5t-30.5 -75.5z" />
<glyph unicode="&#xe6;" horiz-adv-x="1728" d="M98 254q0 119 77 198.5t251 108.5l197 33q80 14 105.5 28.5t25.5 49.5q0 86 -51.5 145.5t-161.5 59.5q-90 0 -157 -47.5t-73 -141.5h-172q12 178 131 257t271 79q117 0 203.5 -38t132.5 -114q57 72 144 112t200 40q190 0 312 -126t122 -349v-74h-713q6 -160 85 -252 t202 -92q117 0 170 52.5t67 119.5h181q-20 -133 -135 -230.5t-283 -97.5q-139 0 -238.5 54.5t-156.5 154.5q-70 -123 -179.5 -166t-220.5 -43q-160 0 -248 77t-88 202zM279 270q0 -70 50 -108.5t138 -38.5q117 0 202 70.5t85 224.5v96q-14 -18 -42 -29.5t-65 -17.5l-188 -33 q-94 -14 -137 -57t-43 -107zM950 610h514q-8 125 -73.5 191.5t-169.5 66.5t-176 -70.5t-95 -187.5z" />
<glyph unicode="&#xe7;" horiz-adv-x="1056" d="M82 500q0 238 136 381t339 143q193 0 303.5 -103.5t130.5 -256.5h-180q-14 86 -75.5 145t-178.5 59q-123 0 -205 -101t-82 -267t82 -267.5t205 -101.5q117 0 178.5 59.5t75.5 145.5h180q-20 -147 -121.5 -248.5t-279.5 -110.5v-51q92 -6 140 -57t48 -123 q0 -86 -60.5 -141.5t-176.5 -55.5h-115v115h106q49 0 78 16.5t29 65.5q0 43 -28.5 62.5t-78.5 19.5h-65l49 149q-203 14 -318.5 154.5t-115.5 368.5z" />
<glyph unicode="&#xe8;" horiz-adv-x="1073" d="M82 500q0 231 136 377.5t339 146.5q197 0 319.5 -126t122.5 -349v-74h-729q6 -156 86 -250t209 -94q111 0 171.5 52.5t74.5 119.5h180q-20 -133 -136 -230.5t-290 -97.5q-231 0 -357 143.5t-126 381.5zM197 1499h213l213 -336h-131zM281 610h534q-12 135 -79.5 196.5 t-178.5 61.5q-100 0 -176 -68.5t-100 -189.5z" />
<glyph unicode="&#xe9;" horiz-adv-x="1073" d="M82 500q0 231 136 377.5t339 146.5q197 0 319.5 -126t122.5 -349v-74h-729q6 -156 86 -250t209 -94q111 0 171.5 52.5t74.5 119.5h180q-20 -133 -136 -230.5t-290 -97.5q-231 0 -357 143.5t-126 381.5zM281 610h534q-12 135 -79.5 196.5t-178.5 61.5q-100 0 -176 -68.5 t-100 -189.5zM492 1163l213 336h213l-295 -336h-131z" />
<glyph unicode="&#xea;" horiz-adv-x="1073" d="M82 500q0 231 136 377.5t339 146.5q197 0 319.5 -126t122.5 -349v-74h-729q6 -156 86 -250t209 -94q111 0 171.5 52.5t74.5 119.5h180q-20 -133 -136 -230.5t-290 -97.5q-231 0 -357 143.5t-126 381.5zM213 1163l262 336h164l262 -336h-172l-172 230l-172 -230h-172z M281 610h534q-12 135 -79.5 196.5t-178.5 61.5q-100 0 -176 -68.5t-100 -189.5z" />
<glyph unicode="&#xeb;" horiz-adv-x="1073" d="M82 500q0 231 136 377.5t339 146.5q197 0 319.5 -126t122.5 -349v-74h-729q6 -156 86 -250t209 -94q111 0 171.5 52.5t74.5 119.5h180q-20 -133 -136 -230.5t-290 -97.5q-231 0 -357 143.5t-126 381.5zM262 1237v188h180v-188h-180zM281 610h534q-12 135 -79.5 196.5 t-178.5 61.5q-100 0 -176 -68.5t-100 -189.5zM672 1237v188h180v-188h-180z" />
<glyph unicode="&#xec;" horiz-adv-x="491" d="M-115 1499h213l213 -336h-131zM156 0v999h180v-999h-180z" />
<glyph unicode="&#xed;" horiz-adv-x="491" d="M156 0v999h180v-999h-180zM180 1163l213 336h213l-295 -336h-131z" />
<glyph unicode="&#xee;" horiz-adv-x="491" d="M-98 1163l262 336h164l262 -336h-172l-172 230l-172 -230h-172zM156 0v999h180v-999h-180z" />
<glyph unicode="&#xef;" horiz-adv-x="491" d="M-49 1237v188h180v-188h-180zM156 0v999h180v-999h-180zM360 1237v188h181v-188h-181z" />
<glyph unicode="&#xf0;" horiz-adv-x="1179" d="M90 467q0 213 143.5 352t339.5 139q74 0 161 -27.5t143 -94.5h10q-37 127 -95.5 221t-148.5 164l-225 -156l-66 98l185 127q-55 29 -122 54.5t-145 48.5l41 131q102 -27 192.5 -63t166.5 -79l207 142l65 -99l-166 -114q141 -111 227.5 -287t86.5 -469v-6 q0 -274 -143.5 -424t-356.5 -150q-225 0 -362.5 139.5t-137.5 352.5zM279 467q0 -147 88 -241.5t223 -94.5t223 94t88 242q0 154 -88 245t-223 91t-223 -94.5t-88 -241.5z" />
<glyph unicode="&#xf1;" horiz-adv-x="1155" d="M156 0v999h172v-147h8q43 86 122 129t189 43q147 0 258 -93t111 -325v-606h-180v582q0 160 -62.5 223t-167.5 63q-113 0 -191.5 -94t-78.5 -256v-518h-180zM246 1221q4 92 53 156.5t143 64.5q90 0 162 -49.5t125 -49.5q43 0 63.5 32t26.5 67h99q-4 -92 -53.5 -156.5 t-143.5 -64.5q-90 0 -162 49t-125 49q-43 0 -63.5 -32t-26.5 -66h-98z" />
<glyph unicode="&#xf2;" horiz-adv-x="1146" d="M82 500q0 238 139 381t352 143q225 0 358.5 -143.5t133.5 -380.5q0 -238 -139.5 -381.5t-352.5 -143.5q-225 0 -358 143.5t-133 381.5zM213 1499h213l213 -336h-131zM270 500q0 -166 84 -267.5t219 -101.5t219.5 101.5t84.5 267.5q0 172 -84 270t-220 98 q-135 0 -219 -101t-84 -267z" />
<glyph unicode="&#xf3;" horiz-adv-x="1146" d="M82 500q0 238 139 381t352 143q225 0 358.5 -143.5t133.5 -380.5q0 -238 -139.5 -381.5t-352.5 -143.5q-225 0 -358 143.5t-133 381.5zM270 500q0 -166 84 -267.5t219 -101.5t219.5 101.5t84.5 267.5q0 172 -84 270t-220 98q-135 0 -219 -101t-84 -267zM508 1163l213 336 h213l-295 -336h-131z" />
<glyph unicode="&#xf4;" horiz-adv-x="1146" d="M82 500q0 238 139 381t352 143q225 0 358.5 -143.5t133.5 -380.5q0 -238 -139.5 -381.5t-352.5 -143.5q-225 0 -358 143.5t-133 381.5zM229 1163l263 336h163l263 -336h-173l-172 230l-172 -230h-172zM270 500q0 -166 84 -267.5t219 -101.5t219.5 101.5t84.5 267.5 q0 172 -84 270t-220 98q-135 0 -219 -101t-84 -267z" />
<glyph unicode="&#xf5;" horiz-adv-x="1146" d="M82 500q0 238 139 381t352 143q225 0 358.5 -143.5t133.5 -380.5q0 -238 -139.5 -381.5t-352.5 -143.5q-225 0 -358 143.5t-133 381.5zM238 1221q4 92 53 156.5t143 64.5q90 0 162 -49.5t125 -49.5q43 0 63.5 32t26.5 67h98q-4 -92 -53 -156.5t-143 -64.5q-90 0 -162 49 t-125 49q-43 0 -63.5 -32t-26.5 -66h-98zM270 500q0 -166 84 -267.5t219 -101.5t219.5 101.5t84.5 267.5q0 172 -84 270t-220 98q-135 0 -219 -101t-84 -267z" />
<glyph unicode="&#xf6;" horiz-adv-x="1146" d="M82 500q0 238 139 381t352 143q225 0 358.5 -143.5t133.5 -380.5q0 -238 -139.5 -381.5t-352.5 -143.5q-225 0 -358 143.5t-133 381.5zM270 500q0 -166 84 -267.5t219 -101.5t219.5 101.5t84.5 267.5q0 172 -84 270t-220 98q-135 0 -219 -101t-84 -267zM279 1237v188h180 v-188h-180zM688 1237v188h180v-188h-180z" />
<glyph unicode="&#xf7;" d="M115 442v156h934v-156h-934zM483 53v205h197v-205h-197zM483 778v205h197v-205h-197z" />
<glyph unicode="&#xf8;" horiz-adv-x="1146" d="M82 -25l123 152q-59 70 -91 163t-32 210q0 238 139 381t352 143q86 0 160 -22.5t131 -61.5l70 84h131l-125 -154q59 -68 92 -162t33 -208q0 -238 -139.5 -381.5t-352.5 -143.5q-86 0 -160.5 21.5t-131.5 62.5l-68 -84h-131zM270 500q0 -66 13.5 -123.5t40.5 -102.5 l432 531q-37 31 -83 47t-100 16q-135 0 -219 -101t-84 -267zM391 195q37 -31 83 -47.5t99 -16.5q135 0 219.5 101.5t84.5 267.5q0 68 -13.5 124t-40.5 101z" />
<glyph unicode="&#xf9;" horiz-adv-x="1146" d="M139 393v606h180v-581q0 -160 62.5 -223.5t167.5 -63.5q117 0 189.5 96.5t72.5 255.5v516h180v-999h-172v147h-8q-43 -86 -118 -129t-185 -43q-147 0 -258 93.5t-111 324.5zM217 1499h213l213 -336h-131z" />
<glyph unicode="&#xfa;" horiz-adv-x="1146" d="M139 393v606h180v-581q0 -160 62.5 -223.5t167.5 -63.5q117 0 189.5 96.5t72.5 255.5v516h180v-999h-172v147h-8q-43 -86 -118 -129t-185 -43q-147 0 -258 93.5t-111 324.5zM512 1163l213 336h213l-295 -336h-131z" />
<glyph unicode="&#xfb;" horiz-adv-x="1146" d="M139 393v606h180v-581q0 -160 62.5 -223.5t167.5 -63.5q117 0 189.5 96.5t72.5 255.5v516h180v-999h-172v147h-8q-43 -86 -118 -129t-185 -43q-147 0 -258 93.5t-111 324.5zM233 1163l263 336h163l263 -336h-172l-172 230l-172 -230h-173z" />
<glyph unicode="&#xfc;" horiz-adv-x="1146" d="M139 393v606h180v-581q0 -160 62.5 -223.5t167.5 -63.5q117 0 189.5 96.5t72.5 255.5v516h180v-999h-172v147h-8q-43 -86 -118 -129t-185 -43q-147 0 -258 93.5t-111 324.5zM283 1237v188h180v-188h-180zM692 1237v188h180v-188h-180z" />
<glyph unicode="&#xfd;" horiz-adv-x="958" d="M8 999h197l278 -802h9l278 802h180l-424 -1155q-39 -111 -124 -211t-236 -100h-98v156h65q86 0 147.5 52t98.5 153l22 63zM410 1163l213 336h213l-295 -336h-131z" />
<glyph unicode="&#xfe;" horiz-adv-x="1196" d="M156 -451v1950h180v-319q0 -51 -1 -144.5t-7 -191.5h8q49 98 140 139t196 41q190 0 316 -136t126 -380t-134 -388.5t-325 -144.5q-104 0 -187 41t-132 140h-8q6 -98 7 -191.5t1 -144.5v-271h-180zM336 500q0 -178 86 -273.5t209 -95.5t209 99.5t86 277.5t-86 269t-209 91 q-119 0 -205 -91t-90 -261v-16z" />
<glyph unicode="&#xff;" horiz-adv-x="958" d="M8 999h197l278 -802h9l278 802h180l-424 -1155q-39 -111 -124 -211t-236 -100h-98v156h65q86 0 147.5 52t98.5 153l22 63zM180 1237v188h180v-188h-180zM590 1237v188h180v-188h-180z" />
<glyph unicode="&#x152;" horiz-adv-x="2113" d="M90 705q0 307 187.5 505.5t549.5 198.5h1164v-164h-762v-446h606v-164h-606v-471h778v-164h-1180q-362 0 -549.5 198.5t-187.5 506.5zM287 705q0 -213 122.5 -377t417.5 -164h213v1081h-213q-295 0 -417.5 -163.5t-122.5 -376.5z" />
<glyph unicode="&#x153;" horiz-adv-x="1859" d="M82 500q0 238 139 381t352 143q133 0 234.5 -54.5t161.5 -150.5q61 96 158.5 150.5t215.5 54.5q197 0 320 -126t123 -349v-74h-729q6 -156 86 -250t209 -94q111 0 171 52.5t74 119.5h181q-20 -133 -136 -230.5t-290 -97.5q-135 0 -234.5 53.5t-156.5 147.5 q-61 -94 -163 -147.5t-225 -53.5q-225 0 -358 143.5t-133 381.5zM270 500q0 -166 84 -267.5t219 -101.5t219.5 101.5t84.5 267.5q0 172 -84 270t-220 98q-135 0 -219 -101t-84 -267zM1067 610h535q-12 135 -80 196.5t-179 61.5q-100 0 -174.5 -70.5t-101.5 -187.5z" />
<glyph unicode="&#x178;" horiz-adv-x="1245" d="M25 1409h213l380 -664h9l397 664h197l-508 -842v-567h-189v553zM328 1573v188h180v-188h-180zM737 1573v188h181v-188h-181z" />
<glyph unicode="&#x2c6;" horiz-adv-x="1146" d="M229 1163l263 336h163l263 -336h-173l-172 230l-172 -230h-172z" />
<glyph unicode="&#x2dc;" horiz-adv-x="1146" d="M238 1221q4 92 53 156.5t143 64.5q90 0 162 -49.5t125 -49.5q43 0 63.5 32t26.5 67h98q-4 -92 -53 -156.5t-143 -64.5q-90 0 -162 49t-125 49q-43 0 -63.5 -32t-26.5 -66h-98z" />
<glyph unicode="&#x2000;" horiz-adv-x="979" />
<glyph unicode="&#x2001;" horiz-adv-x="1958" />
<glyph unicode="&#x2002;" horiz-adv-x="979" />
<glyph unicode="&#x2003;" horiz-adv-x="1958" />
<glyph unicode="&#x2004;" horiz-adv-x="652" />
<glyph unicode="&#x2005;" horiz-adv-x="489" />
<glyph unicode="&#x2006;" horiz-adv-x="326" />
<glyph unicode="&#x2007;" horiz-adv-x="326" />
<glyph unicode="&#x2008;" horiz-adv-x="244" />
<glyph unicode="&#x2009;" horiz-adv-x="391" />
<glyph unicode="&#x200a;" horiz-adv-x="108" />
<glyph unicode="&#x2010;" horiz-adv-x="811" d="M123 434v164h565v-164h-565z" />
<glyph unicode="&#x2011;" horiz-adv-x="811" d="M123 434v164h565v-164h-565z" />
<glyph unicode="&#x2012;" horiz-adv-x="811" d="M123 434v164h565v-164h-565z" />
<glyph unicode="&#x2013;" horiz-adv-x="1138" d="M123 434v164h893v-164h-893z" />
<glyph unicode="&#x2014;" horiz-adv-x="1720" d="M123 434v164h1474v-164h-1474z" />
<glyph unicode="&#x2018;" horiz-adv-x="507" d="M147 893v205l82 311h99l-58 -295h90v-221h-213z" />
<glyph unicode="&#x2019;" horiz-adv-x="507" d="M147 1188v221h213v-205l-81 -311h-99l58 295h-91z" />
<glyph unicode="&#x201a;" horiz-adv-x="507" d="M147 0v221h213v-205l-81 -311h-99l58 295h-91z" />
<glyph unicode="&#x201c;" horiz-adv-x="876" d="M147 893v205l82 311h99l-58 -295h90v-221h-213zM516 893v205l82 311h98l-57 -295h90v-221h-213z" />
<glyph unicode="&#x201d;" horiz-adv-x="876" d="M147 1188v221h213v-205l-81 -311h-99l58 295h-91zM516 1188v221h213v-205l-82 -311h-98l57 295h-90z" />
<glyph unicode="&#x201e;" horiz-adv-x="876" d="M147 0v221h213v-205l-81 -311h-99l58 295h-91zM516 0v221h213v-205l-82 -311h-98l57 295h-90z" />
<glyph unicode="&#x2022;" horiz-adv-x="999" d="M147 516q0 147 102.5 249.5t250.5 102.5q147 0 249.5 -102t102.5 -250q0 -147 -102.5 -249.5t-249.5 -102.5t-250 102.5t-103 249.5z" />
<glyph unicode="&#x2026;" horiz-adv-x="1589" d="M156 0v238h229v-238h-229zM680 0v238h229v-238h-229zM1204 0v238h230v-238h-230z" />
<glyph unicode="&#x202f;" horiz-adv-x="391" />
<glyph unicode="&#x2039;" horiz-adv-x="655" d="M106 516l295 418h148l-238 -418l238 -418h-148z" />
<glyph unicode="&#x203a;" horiz-adv-x="655" d="M106 98l238 418l-238 418h148l295 -418l-295 -418h-148z" />
<glyph unicode="&#x205f;" horiz-adv-x="489" />
<glyph unicode="&#x20ac;" d="M-8 508l33 115h141q-2 20 -2 40.5v41.5q0 27 1 53t3 53h-135l33 115h114q39 221 164 364.5t344 143.5q195 0 301.5 -98.5t140.5 -270.5h-174q-33 104 -92 158.5t-168 54.5q-129 0 -212 -93t-113 -259h415l-32 -115h-400q-2 -27 -2 -53.5v-52.5v-41t2 -41h391l-32 -115 h-346q27 -178 110.5 -277.5t218.5 -99.5q100 0 155.5 42t90.5 130h176q-39 -156 -142.5 -242t-287.5 -86q-225 0 -351 150.5t-159 382.5h-186z" />
<glyph unicode="&#x2122;" horiz-adv-x="1646" d="M8 1286v123h631v-123h-238v-581h-147v581h-246zM737 705v704h205l205 -508h8l205 508h205v-704h-148l8 507h-8l-205 -507h-122l-205 507h-8l8 -507h-148z" />
<glyph unicode="&#x25fc;" horiz-adv-x="1003" d="M0 0v1004h1004v-1004h-1004z" />
</font>
</defs>
</svg>
